<?xml version="1.0" standalone="no"?>
<!DOCTYPE svg PUBLIC "-//W3C//DTD SVG 20010904//EN"
 "http://www.w3.org/TR/2001/REC-SVG-20010904/DTD/svg10.dtd">
<svg version="1.0" xmlns="http://www.w3.org/2000/svg"
 width="416.000000pt" height="267.000000pt" viewBox="0 0 416.000000 267.000000"
 preserveAspectRatio="xMidYMid meet">

<g transform="translate(0.000000,267.000000) scale(0.100000,-0.100000)"
fill="#000000" stroke="none">
<path d="M1940 2511 c-162 -18 -279 -90 -332 -206 -32 -71 -33 -202 0 -262 35
-67 83 -97 161 -101 61 -4 70 -1 116 30 39 26 70 63 145 175 155 232 256 316
380 316 96 0 152 -47 152 -129 0 -84 -80 -177 -163 -190 -29 -5 -39 -1 -63 25
-35 36 -76 42 -76 11 0 -13 13 -29 36 -42 l36 -21 -6 -71 c-4 -39 -10 -100
-13 -135 l-6 -63 -51 6 c-28 3 -103 9 -167 12 -141 8 -205 -9 -248 -65 -46
-60 -69 -81 -85 -75 -9 3 -15 9 -14 12 3 24 -3 35 -13 25 -8 -8 -8 -17 1 -33
9 -17 19 -21 43 -18 28 3 32 0 34 -22 1 -14 3 -34 5 -45 3 -19 0 -21 -44 -24
-19 -1 -20 -3 -8 -11 8 -5 27 -10 41 -10 19 0 28 -6 33 -22 9 -37 8 -38 -38
-38 -43 0 -72 15 -41 22 10 2 6 7 -11 15 -22 10 -24 10 -14 -3 8 -9 9 -14 2
-14 -6 0 -18 10 -27 23 -8 12 -19 20 -23 18 -4 -2 -11 6 -17 18 -14 29 -20 26
-22 -11 -3 -39 12 -58 43 -58 21 0 24 -4 19 -27 l-5 -28 11 28 c11 27 25 35
31 17 2 -5 18 -10 36 -12 21 -1 32 -7 32 -18 0 -11 2 -12 8 -3 6 9 11 7 20 -8
12 -18 10 -19 -18 -14 -22 4 -30 1 -30 -9 0 -20 -18 -30 -33 -18 -7 5 -22 12
-34 15 -20 4 -21 3 -13 -14 6 -10 21 -21 33 -23 12 -2 44 -9 72 -14 44 -9 48
-9 31 4 -14 10 -16 14 -5 14 10 1 9 3 -3 11 -10 5 -18 14 -18 20 0 12 31 -4
56 -28 17 -17 18 -17 11 0 -9 23 10 22 23 -2 29 -56 -13 -114 -68 -95 -15 5
-28 18 -30 28 -4 18 -3 19 13 3 18 -19 35 -22 35 -7 0 6 -7 10 -15 10 -8 0
-15 5 -15 10 0 6 -7 10 -15 10 -21 0 -19 -40 3 -56 25 -19 56 -17 85 6 l26 20
4 -27 c2 -17 5 -9 6 20 0 27 4 47 9 45 85 -44 108 -50 163 -45 32 3 68 12 81
21 32 23 34 21 37 -26 1 -24 6 -47 11 -52 5 -5 6 9 3 33 -5 35 -3 41 13 41 17
0 17 1 1 13 -16 11 -16 14 -3 32 14 19 15 19 21 3 11 -27 26 -22 19 6 -7 29
11 42 34 25 15 -12 15 -12 0 7 -19 21 -24 39 -10 30 5 -3 6 8 4 24 -3 22 1 31
19 41 24 12 24 12 6 -9 -15 -17 -16 -24 -7 -42 7 -13 17 -19 27 -16 8 3 19 6
24 6 4 0 6 6 3 14 -3 7 -11 13 -17 12 -7 0 -13 4 -14 9 -2 6 3 10 10 10 14 1
11 27 -5 36 -7 4 -7 9 0 13 13 8 24 -8 38 -54 l10 -35 6 28 c4 19 -1 36 -15
54 l-21 26 27 -5 c14 -3 24 -1 21 3 -3 5 1 9 9 9 7 0 14 6 14 14 0 13 -3 13
-21 0 -28 -19 -76 -18 -106 3 -22 15 -23 15 -12 1 11 -14 10 -26 -4 -74 -21
-74 -98 -157 -162 -174 -95 -25 -217 35 -268 133 -13 24 -13 30 1 49 21 32 18
117 -5 103 -16 -10 -32 25 -26 58 14 73 84 104 246 106 120 2 190 -7 195 -23
2 -6 6 -24 9 -39 4 -17 11 -25 18 -21 7 5 9 2 5 -9 -4 -11 -1 -15 14 -12 47 9
53 42 13 81 l-25 26 15 104 c9 58 16 120 16 139 0 32 3 35 28 35 119 0 212 87
212 200 0 44 -42 113 -88 145 -38 26 -54 30 -123 34 -73 3 -86 1 -144 -28 -82
-41 -138 -103 -240 -267 -113 -182 -164 -234 -230 -234 -75 0 -135 89 -135
199 2 196 140 311 399 331 53 4 76 8 51 9 -25 1 -54 3 -65 5 -11 2 -49 0 -85
-3z m430 -743 c0 -6 -7 -5 -15 2 -8 7 -15 17 -15 22 0 6 7 5 15 -2 8 -7 15
-17 15 -22z m-490 -138 c2 27 4 30 7 11 6 -30 -4 -71 -18 -71 -6 0 -7 4 -4 10
3 5 1 18 -5 29 -5 11 -7 28 -3 38 6 14 9 11 14 -17 l6 -35 3 35z m3 -160 c-5
-10 -28 -5 -28 7 0 6 -3 15 -7 19 -5 4 -8 14 -8 22 0 9 9 3 23 -14 12 -16 21
-31 20 -34z"/>
<path d="M1981 1816 c-8 -10 -9 -16 -1 -21 10 -6 14 1 11 19 -1 5 4 6 12 3 8
-3 20 -1 28 4 10 6 7 9 -12 9 -15 0 -32 -6 -38 -14z"/>
<path d="M1930 1806 c0 -2 8 -10 18 -17 15 -13 16 -12 3 4 -13 16 -21 21 -21
13z"/>
<path d="M1886 1781 c-10 -11 -16 -26 -13 -33 4 -10 6 -10 6 1 1 8 8 23 18 33
9 10 14 18 11 18 -3 0 -13 -9 -22 -19z"/>
<path d="M2291 1725 c-1 -22 4 -47 9 -55 5 -8 10 -11 10 -7 0 5 10 1 22 -7 34
-24 81 -20 108 9 13 14 18 25 12 25 -6 0 -14 -5 -17 -10 -12 -20 -26 2 -21 33
5 27 5 29 -4 10 -10 -25 -46 -33 -37 -9 4 10 1 13 -9 9 -7 -3 -14 -9 -14 -13
0 -12 27 -31 41 -28 7 2 15 -5 17 -14 3 -14 -3 -18 -27 -18 -33 0 -61 22 -61
48 -1 9 -7 28 -15 42 -14 25 -14 25 -14 -15z"/>
<path d="M1871 1704 c0 -11 3 -14 6 -6 3 7 2 16 -1 19 -3 4 -6 -2 -5 -13z"/>
<path d="M1711 1681 c-8 -5 -9 -11 -3 -15 5 -3 15 1 22 9 14 16 3 20 -19 6z"/>
<path d="M1781 1664 c0 -11 3 -14 6 -6 3 7 2 16 -1 19 -3 4 -6 -2 -5 -13z"/>
<path d="M1682 1620 c0 -14 2 -19 5 -12 2 6 2 18 0 25 -3 6 -5 1 -5 -13z"/>
<path d="M1701 1624 c0 -11 3 -14 6 -6 3 7 2 16 -1 19 -3 4 -6 -2 -5 -13z"/>
<path d="M2467 1589 c4 -13 8 -18 11 -10 2 7 -1 18 -6 23 -8 8 -9 4 -5 -13z"/>
<path d="M2050 1530 c-12 -7 -11 -12 4 -29 24 -26 68 -27 90 -2 17 18 17 20
-1 29 -23 12 -75 13 -93 2z"/>
<path d="M2457 1504 c-13 -18 -14 -22 -3 -18 8 3 17 13 20 21 10 25 3 23 -17
-3z"/>
<path d="M2316 1431 c-4 -6 -4 -11 0 -11 4 0 -1 -6 -12 -14 -10 -8 -15 -18
-11 -22 4 -4 17 2 29 14 16 16 19 25 11 33 -8 8 -13 8 -17 0z"/>
<path d="M1891 1394 c0 -11 3 -14 6 -6 3 7 2 16 -1 19 -3 4 -6 -2 -5 -13z"/>
<path d="M1650 1295 c-10 -12 -10 -15 3 -15 24 0 30 -55 23 -199 -9 -193 7
-233 81 -197 l38 19 -27 9 c-14 5 -29 17 -33 26 -3 9 -6 89 -5 178 0 89 -2
168 -6 178 -8 20 -57 21 -74 1z"/>
<path d="M2020 1300 c-13 -8 -12 -11 5 -24 19 -14 20 -24 17 -212 l-4 -198 24
16 c19 12 25 29 34 89 13 92 17 99 58 99 47 0 56 -15 56 -96 0 -40 3 -79 6
-88 8 -22 47 -20 75 4 l24 19 -22 1 c-27 0 -36 28 -30 91 4 47 -6 89 -26 101
-22 14 -69 8 -103 -13 l-34 -21 0 105 c0 58 -3 112 -6 121 -7 18 -50 21 -74 6z"/>
<path d="M3160 1221 c-149 -46 -218 -165 -158 -272 24 -43 85 -79 134 -79 42
0 113 26 147 53 24 19 30 33 36 85 7 60 7 62 -16 62 -24 0 -93 -25 -93 -34 0
-3 12 -4 28 -3 26 2 27 1 27 -52 -1 -40 -6 -57 -20 -67 -41 -30 -129 -10 -175
40 -36 40 -41 138 -8 186 13 19 35 40 48 47 34 17 101 16 128 -2 24 -18 62 -6
62 19 0 24 -84 34 -140 17z"/>
<path d="M715 1206 c-29 -12 -29 -13 -6 -19 l23 -6 -4 -153 c-3 -151 -3 -153
19 -156 12 -2 37 5 55 15 l33 18 -27 3 c-27 3 -28 5 -28 63 l0 59 85 0 85 0 0
-75 c0 -88 10 -99 68 -69 33 16 34 18 15 22 -22 3 -22 6 -22 154 0 83 -3 153
-6 156 -3 3 -24 -1 -47 -8 -39 -11 -41 -13 -20 -21 19 -7 22 -15 22 -64 0 -30
-4 -55 -10 -56 -5 -1 -21 -1 -35 -1 -14 0 -50 0 -80 1 l-55 1 0 75 c0 83 -4
87 -65 61z"/>
<path d="M2616 1205 c-19 -15 -19 -15 2 -15 20 0 22 -5 23 -62 1 -123 13 -196
39 -223 33 -35 85 -34 137 4 67 48 93 109 109 249 8 70 0 76 -59 45 -30 -16
-30 -18 -9 -21 12 -2 22 -5 22 -7 0 -30 -25 -172 -36 -208 -17 -51 -41 -65
-89 -53 -48 12 -64 71 -65 234 0 72 0 72 -27 72 -16 0 -37 -7 -47 -15z"/>
<path d="M1863 1173 c-13 -8 -23 -26 -23 -39 0 -12 -7 -30 -16 -38 -14 -15
-14 -16 0 -16 13 0 16 -13 16 -74 0 -41 4 -86 10 -100 13 -35 53 -43 99 -21
l36 18 -33 8 c-19 4 -38 11 -43 16 -10 10 -14 136 -5 152 4 6 17 11 29 11 12
1 33 7 47 15 24 14 23 14 -27 15 l-53 0 0 35 c0 39 -5 41 -37 18z"/>
<path d="M1194 1101 c-58 -26 -89 -74 -89 -134 0 -41 5 -53 28 -73 34 -29 77
-31 132 -5 l40 19 -41 -5 c-35 -5 -46 -1 -72 23 -17 16 -32 40 -34 53 -3 21 5
28 67 53 39 15 79 33 90 38 17 9 17 9 -5 4 -14 -4 -32 -9 -40 -12 -11 -4 -10
0 3 16 38 42 -8 55 -79 23z m34 -28 c-3 -19 -53 -51 -63 -42 -3 4 0 18 6 33
14 31 63 38 57 9z"/>
<path d="M2341 1101 c-23 -18 -23 -18 -3 -23 25 -7 55 -64 72 -136 l12 -53
-44 -57 c-55 -70 -68 -94 -67 -124 1 -18 3 -15 11 12 12 43 34 74 128 180 91
102 106 126 115 173 6 29 4 38 -9 43 -22 8 -61 -25 -46 -40 17 -17 12 -44 -16
-88 l-27 -42 -22 62 c-26 72 -50 112 -68 112 -6 0 -23 -9 -36 -19z"/>
<path d="M1431 1088 c-53 -26 -81 -69 -81 -126 0 -32 6 -49 25 -67 32 -33 63
-31 113 5 l41 29 3 -27 c4 -34 31 -40 77 -16 l34 19 -29 5 -29 5 -3 98 -3 97
-52 0 c-33 0 -68 -8 -96 -22z m94 -75 c0 -46 -5 -66 -19 -82 -26 -29 -60 -26
-85 5 -25 32 -27 74 -5 115 14 28 19 30 62 27 l47 -3 0 -62z"/>
<path d="M1916 519 c-30 -23 -35 -59 -8 -59 12 0 13 3 4 8 -9 6 -4 14 18 30
29 22 39 42 21 42 -4 0 -20 -9 -35 -21z"/>
<path d="M1813 473 c15 -2 37 -2 50 0 12 2 0 4 -28 4 -27 0 -38 -2 -22 -4z"/>
<path d="M2355 440 c-27 -30 -12 -34 15 -5 13 14 19 25 13 25 -5 0 -18 -9 -28
-20z"/>
<path d="M1920 426 c0 -29 39 -82 40 -53 0 18 -27 77 -35 77 -3 0 -5 -11 -5
-24z"/>
<path d="M2140 425 c-24 -26 -21 -47 4 -26 11 10 29 51 22 51 -1 0 -13 -11
-26 -25z"/>
<path d="M2287 427 c-11 -29 -9 -53 4 -40 6 6 9 21 7 34 -3 21 -4 22 -11 6z"/>
<path d="M2111 365 c0 -11 6 -31 14 -45 13 -22 14 -23 14 -5 0 11 -6 31 -14
45 -13 22 -14 23 -14 5z"/>
<path d="M2309 349 c27 -22 49 -26 32 -5 -6 8 -22 16 -34 19 -22 6 -22 6 2
-14z"/>
<path d="M2054 328 c9 -21 11 -41 5 -62 -13 -44 -12 -46 15 -46 26 0 36 16 36
59 0 32 -34 81 -55 81 -12 0 -12 -5 -1 -32z"/>
<path d="M1970 318 c-33 -54 -20 -108 25 -108 31 0 55 35 55 80 0 66 -47 82
-80 28z"/>
</g>
</svg>
