<?xml version="1.0" standalone="no"?>
<!DOCTYPE svg PUBLIC "-//W3C//DTD SVG 20010904//EN"
 "http://www.w3.org/TR/2001/REC-SVG-20010904/DTD/svg10.dtd">
<svg version="1.0" xmlns="http://www.w3.org/2000/svg"
 width="1127.000000pt" height="700.000000pt" viewBox="0 0 1127.000000 700.000000"
 preserveAspectRatio="xMidYMid meet">

<g transform="translate(0.000000,700.000000) scale(0.100000,-0.100000)"
fill="#030E4F" stroke="none">
<path d="M2 3503 l3 -3498 5632 -3 5633 -2 0 3500 0 3500 -5635 0 -5635 0 2
-3497z m5048 2093 c148 -98 76 -336 -101 -336 -164 0 -247 187 -137 306 22 24
55 48 72 54 51 16 121 6 166 -24z m16 -387 c56 -26 84 -72 84 -135 1 -46 5
-54 71 -130 l71 -82 207 6 c179 4 211 3 238 -12 39 -19 55 -47 55 -91 0 -43
-16 -72 -52 -90 -24 -12 -76 -15 -283 -15 -242 0 -256 1 -281 21 l-26 20 0
-115 0 -116 85 0 85 0 0 -125 0 -126 -237 7 c-255 7 -278 12 -310 61 -16 24
-18 64 -21 398 -2 203 0 389 3 412 7 49 45 100 90 119 49 21 171 18 221 -7z
m-365 -139 c4 -41 10 -254 14 -472 l8 -398 279 0 278 0 0 -285 0 -285 -50 0
-50 0 0 225 0 225 -225 0 -225 0 0 -220 0 -220 -55 0 -55 0 0 756 0 755 38 -3
37 -3 6 -75z m1933 -466 c19 -7 21 -45 4 -62 -7 -7 -22 -12 -35 -12 l-23 0 0
-450 0 -450 -25 0 -25 0 0 450 0 450 -570 0 -570 0 0 -450 0 -450 -25 0 -25 0
0 450 c0 427 -1 450 -18 450 -10 0 -23 5 -30 12 -16 16 -15 55 1 61 18 8 1322
8 1341 1z m-1125 -178 c20 -20 36 -77 97 -333 40 -169 73 -325 74 -346 0 -29
-8 -46 -34 -75 -31 -33 -39 -37 -85 -37 -73 0 -107 36 -132 141 -16 68 -19
120 -19 380 0 165 3 303 6 306 10 11 68 -12 93 -36z m-1019 -711 l0 -65 -500
0 -500 0 0 65 0 65 500 0 500 0 0 -65z m3290 0 l0 -65 -495 0 -495 0 0 65 0
65 495 0 495 0 0 -65z m1330 -447 c27 -29 25 -54 -5 -83 l-24 -25 -3446 0
c-3432 0 -3445 0 -3465 20 -24 24 -26 67 -3 92 16 17 137 18 3469 18 l3453 0
21 -22z m-2060 -543 l0 -95 -140 0 -140 0 0 95 0 95 140 0 140 0 0 -95z m1270
0 l0 -95 -140 0 -140 0 0 95 0 95 140 0 140 0 0 -95z m-860 34 l50 -11 0 -89
c0 -87 0 -89 -24 -89 -24 0 -36 -16 -36 -51 0 -14 7 -19 30 -19 l30 0 0 -110
0 -110 -25 0 -25 0 0 -445 0 -445 -140 0 -140 0 0 450 0 450 -25 0 -25 0 0
105 0 105 25 0 c24 0 25 2 25 70 0 109 28 157 107 186 47 16 106 17 173 3z
m480 -9 c19 -10 21 -19 18 -93 -3 -81 -3 -82 -30 -85 -25 -3 -28 -8 -28 -38 0
-31 2 -34 30 -34 l31 0 -3 -107 -3 -108 -27 -3 -28 -3 0 -445 0 -444 -140 0
-140 0 0 450 0 450 -25 0 -25 0 0 105 0 105 25 0 c24 0 25 3 25 58 0 31 5 74
10 94 13 45 60 94 103 108 39 12 179 5 207 -10z m-1910 -675 l0 -685 -140 0
-140 0 0 685 0 685 140 0 140 0 0 -685z m-3590 435 l0 -240 60 0 60 0 0 240 0
240 140 0 140 0 0 -680 0 -680 -140 0 -140 0 0 310 0 310 -60 0 -60 0 0 -310
0 -310 -140 0 -140 0 0 680 0 680 140 0 140 0 0 -240z m2370 120 l0 -120 40 0
40 0 0 -110 0 -110 -40 0 -40 0 0 -334 c0 -184 3 -341 6 -350 4 -10 18 -16 40
-16 l34 0 0 -95 c0 -82 -3 -97 -17 -103 -10 -4 -68 -7 -130 -7 -97 0 -115 3
-140 21 -63 46 -63 49 -63 487 l0 397 -40 0 -40 0 0 110 0 110 40 0 40 0 0
120 0 120 135 0 135 0 0 -120z m1890 -10 l0 -130 -80 0 -80 0 0 -550 0 -550
-140 0 -140 0 0 550 0 550 -80 0 -80 0 0 130 0 130 300 0 300 0 0 -130z
m-3262 -82 c71 -26 143 -99 173 -175 22 -55 24 -72 27 -357 4 -335 -3 -404
-49 -484 -56 -98 -149 -142 -299 -142 -192 0 -298 76 -337 239 -18 79 -18 614
1 692 16 69 54 137 98 175 95 80 252 101 386 52z m770 5 c111 -33 181 -132
190 -270 l5 -73 -147 0 -146 0 0 45 c0 83 -37 122 -85 91 -27 -18 -33 -55 -16
-99 6 -14 67 -67 144 -125 207 -154 250 -222 251 -397 1 -94 -1 -105 -32 -168
-61 -124 -160 -172 -335 -165 -125 5 -189 30 -247 95 -51 58 -70 117 -77 241
l-6 102 146 0 147 0 0 -95 c0 -90 1 -95 25 -111 60 -39 107 24 86 117 -14 60
-33 83 -157 181 -200 160 -234 213 -234 367 0 90 22 142 82 196 95 86 254 113
406 68z m1250 1 c68 -19 131 -76 163 -147 22 -48 24 -67 27 -254 l3 -203 -201
0 -201 0 3 -160 c3 -173 7 -183 58 -183 49 0 55 14 58 133 l4 110 140 0 141 0
-6 -107 c-12 -256 -106 -353 -342 -353 -161 0 -240 41 -295 153 -44 89 -53
187 -48 516 5 308 10 335 74 409 83 97 255 132 422 86z m3493 11 c47 -7 112
-63 135 -117 18 -40 19 -81 22 -545 l3 -503 -141 0 -140 0 0 460 c0 447 -1
461 -20 480 -25 25 -41 25 -71 1 l-24 -19 -3 -461 -3 -461 -144 0 -145 0 0
580 0 580 145 0 145 0 0 -57 0 -58 16 30 c35 69 105 109 169 99 11 -1 36 -5
56 -9z m-1901 -585 l0 -580 -140 0 -140 0 0 580 0 580 140 0 140 0 0 -580z
m1270 0 l0 -580 -140 0 -140 0 0 580 0 580 140 0 140 0 0 -580z"/>
<path d="M3250 2330 c-19 -19 -20 -33 -20 -358 0 -374 0 -375 60 -375 60 0 60
2 60 364 0 344 -3 372 -44 383 -31 8 -34 8 -56 -14z"/>
<path d="M5264 2325 c-13 -19 -19 -55 -22 -131 l-5 -104 67 0 66 0 0 103 c0
121 -11 151 -57 155 -25 3 -35 -2 -49 -23z"/>
</g>
</svg>
